<svg width="1360" height="210" viewBox="0 0 1360 210" fill="none" xmlns="http://www.w3.org/2000/svg">
<g clip-path="url(#clip0_1_298)">
<path d="M1048.39 644.193C1222.8 644.193 1364.19 502.803 1364.19 328.389C1364.19 153.975 1222.8 12.584 1048.39 12.584C873.974 12.584 732.584 153.975 732.584 328.389C732.584 502.803 873.974 644.193 1048.39 644.193Z" fill="#237CF2"/>
<path d="M1050.4 587.871C1192.6 587.871 1307.87 472.597 1307.87 330.4C1307.87 188.203 1192.6 72.9287 1050.4 72.9287C908.203 72.9287 792.929 188.203 792.929 330.4C792.929 472.597 908.203 587.871 1050.4 587.871Z" fill="#3289FC"/>
<path d="M1048.39 515.457C1151.7 515.457 1235.46 431.704 1235.46 328.388C1235.46 225.073 1151.7 141.319 1048.39 141.319C945.074 141.319 861.32 225.073 861.32 328.388C861.32 431.704 945.074 515.457 1048.39 515.457Z" fill="#4696FF"/>
</g>
<defs>
<clipPath id="clip0_1_298">
<rect width="1360" height="210" fill="white"/>
</clipPath>
</defs>
</svg>
