<svg width="66" height="68" viewBox="0 0 66 68" fill="none" xmlns="http://www.w3.org/2000/svg">
<path d="M39.4987 12.5486H18.8049C16.839 12.5486 15.2437 10.9533 15.2437 8.98737V3.56126C15.2437 1.59535 16.839 0 18.8049 0H39.4987C41.4647 0 43.06 1.59535 43.06 3.56126V8.98737C43.06 10.9557 41.4647 12.5486 39.4987 12.5486Z" fill="#1A73E8"/>
<path d="M63.4289 38.4761C61.2151 36.2623 57.6057 36.2623 55.392 38.4761L52.7644 41.1181L60.8061 49.1574L63.4289 46.5346C65.6667 44.2992 65.6667 40.7139 63.4289 38.4761Z" fill="#1A73E8"/>
<path d="M50.2186 43.6736L36.1901 57.678C35.9013 57.9908 35.7088 58.3758 35.6366 58.7849L34.5779 65.0171C34.3373 66.3886 35.5404 67.5677 36.912 67.3511L43.1442 66.2924C43.5532 66.2202 43.9382 66.0277 44.227 65.739L58.2555 51.7105L50.2186 43.6736Z" fill="#1A73E8"/>
<path d="M49.6651 6.28015H46.6693V8.98719C46.6693 12.9407 43.4522 16.1578 39.4987 16.1578H18.8049C14.849 16.1578 11.6342 12.9407 11.6342 8.98719V6.28015H8.59033C3.85001 6.28015 0 10.1302 0 14.8705V58.7847C0 63.525 3.85001 67.375 8.59033 67.375H31.3463C30.9806 66.4342 30.8434 65.4139 31.0215 64.3961L32.0778 58.1807C32.2655 57.0786 32.7708 56.0608 33.5312 55.2306L48.847 39.9365L52.8294 35.9324C54.3092 34.4502 56.2077 33.5719 58.2507 33.3193V14.8945C58.2555 10.1061 54.4295 6.28015 49.6651 6.28015ZM25.4053 41.9722H14.9645C13.7686 41.9722 12.7989 41.0024 12.7989 39.8065C12.7989 38.6106 13.7686 37.6409 14.9645 37.6409H25.4053C26.6012 37.6409 27.5709 38.6106 27.5709 39.8065C27.5709 41.0024 26.6012 41.9722 25.4053 41.9722ZM38.1873 29.681H14.9669C13.771 29.681 12.8013 28.7113 12.8013 27.5154C12.8013 26.3195 13.771 25.3497 14.9669 25.3497H38.1873C39.3832 25.3497 40.3529 26.3195 40.3529 27.5154C40.3529 28.7113 39.3832 29.681 38.1873 29.681Z" fill="#1A73E8"/>
</svg>
