<svg width="88" height="67" viewBox="0 0 88 67" fill="none" xmlns="http://www.w3.org/2000/svg">
<path d="M40.1156 39.9094H19.2844C8.62812 39.9094 0 48.5375 0 59.1937C0 63.4906 3.47188 66.9625 7.76875 66.9625H51.6312C55.9281 66.9625 59.4 63.4906 59.4 59.1937C59.4 48.5375 50.7719 39.9094 40.1156 39.9094Z" fill="#1A73E8"/>
<path d="M29.7 34.4094C39.2019 34.4094 46.9047 26.7066 46.9047 17.2047C46.9047 7.7028 39.2019 0 29.7 0C20.1981 0 12.4953 7.7028 12.4953 17.2047C12.4953 26.7066 20.1981 34.4094 29.7 34.4094Z" fill="#1A73E8"/>
<path d="M82.5687 19.5766H75.5219V12.5297C75.5219 9.52189 73.0984 7.09845 70.0906 7.09845C67.0828 7.09845 64.6594 9.52189 64.6594 12.5297V19.5766H57.6125C54.6219 19.5766 52.1812 22 52.1812 25.0078C52.1812 27.9984 54.6047 30.4391 57.6125 30.4391H64.6594V37.4859C64.6594 40.4766 67.0828 42.9172 70.0906 42.9172C73.0812 42.9172 75.5219 40.4938 75.5219 37.4859V30.4391H82.5687C85.5766 30.4391 88 28.0156 88 25.0078C88 22.0172 85.5766 19.5766 82.5687 19.5766Z" fill="#1A73E8"/>
</svg>
