<svg width="28" height="28" viewBox="0 0 28 28" fill="none" xmlns="http://www.w3.org/2000/svg">
<path d="M5.66458 3.81885H21.5254C22.1263 3.81885 22.7027 4.05757 23.1276 4.48249C23.5525 4.90742 23.7912 5.48374 23.7912 6.08468V21.9455C23.7912 22.5465 23.5525 23.1228 23.1276 23.5477C22.7027 23.9726 22.1263 24.2113 21.5254 24.2113H5.66458C5.06364 24.2113 4.48732 23.9726 4.06239 23.5477C3.63746 23.1228 3.39874 22.5465 3.39874 21.9455V6.08468C3.39874 5.48374 3.63746 4.90742 4.06239 4.48249C4.48732 4.05757 5.06364 3.81885 5.66458 3.81885ZM20.3925 6.08468H17.5602C16.5086 6.08468 15.5 6.50244 14.7564 7.24606C14.0128 7.98968 13.595 8.99825 13.595 10.0499V12.8822H11.3292V16.2809H13.595V24.2113H16.9937V16.2809H20.3925V12.8822H16.9937V10.6163C16.9937 10.3159 17.1131 10.0277 17.3256 9.81526C17.538 9.60279 17.8262 9.48343 18.1267 9.48343H20.3925V6.08468Z" fill="white"/>
</svg>
