<svg width="28" height="28" viewBox="0 0 28 28" fill="none" xmlns="http://www.w3.org/2000/svg">
<path d="M8.96654 2.68567H18.483C22.1084 2.68567 25.054 5.63125 25.054 9.25659V18.7731C25.054 20.5158 24.3617 22.1871 23.1294 23.4194C21.8971 24.6517 20.2258 25.344 18.483 25.344H8.96654C5.34121 25.344 2.39562 22.3984 2.39562 18.7731V9.25659C2.39562 7.51387 3.08791 5.84253 4.3202 4.61025C5.55249 3.37796 7.22382 2.68567 8.96654 2.68567ZM8.73996 4.9515C7.65827 4.9515 6.62089 5.3812 5.85602 6.14607C5.09115 6.91093 4.66146 7.94832 4.66146 9.03V18.9997C4.66146 21.2542 6.48545 23.0782 8.73996 23.0782H18.7096C19.7913 23.0782 20.8287 22.6485 21.5936 21.8836C22.3584 21.1187 22.7881 20.0814 22.7881 18.9997V9.03C22.7881 6.7755 20.9641 4.9515 18.7096 4.9515H8.73996ZM19.6726 6.65088C20.0482 6.65088 20.4084 6.80008 20.674 7.06566C20.9395 7.33124 21.0887 7.69144 21.0887 8.06702C21.0887 8.44261 20.9395 8.80281 20.674 9.06839C20.4084 9.33397 20.0482 9.48317 19.6726 9.48317C19.297 9.48317 18.9368 9.33397 18.6712 9.06839C18.4057 8.80281 18.2565 8.44261 18.2565 8.06702C18.2565 7.69144 18.4057 7.33124 18.6712 7.06566C18.9368 6.80008 19.297 6.65088 19.6726 6.65088ZM13.7248 8.35025C15.2271 8.35025 16.6679 8.94705 17.7303 10.0094C18.7926 11.0717 19.3894 12.5125 19.3894 14.0148C19.3894 15.5172 18.7926 16.958 17.7303 18.0203C16.6679 19.0826 15.2271 19.6794 13.7248 19.6794C12.2224 19.6794 10.7816 19.0826 9.71932 18.0203C8.65701 16.958 8.06021 15.5172 8.06021 14.0148C8.06021 12.5125 8.65701 11.0717 9.71932 10.0094C10.7816 8.94705 12.2224 8.35025 13.7248 8.35025ZM13.7248 10.6161C12.8234 10.6161 11.9589 10.9742 11.3215 11.6116C10.6841 12.2489 10.326 13.1134 10.326 14.0148C10.326 14.9162 10.6841 15.7807 11.3215 16.4181C11.9589 17.0555 12.8234 17.4136 13.7248 17.4136C14.6262 17.4136 15.4907 17.0555 16.1281 16.4181C16.7655 15.7807 17.1235 14.9162 17.1235 14.0148C17.1235 13.1134 16.7655 12.2489 16.1281 11.6116C15.4907 10.9742 14.6262 10.6161 13.7248 10.6161Z" fill="white"/>
</svg>
