<svg width="28" height="28" viewBox="0 0 28 28" fill="none" xmlns="http://www.w3.org/2000/svg">
<path d="M21.7154 3.81885C22.3164 3.81885 22.8927 4.05757 23.3176 4.48249C23.7425 4.90742 23.9813 5.48374 23.9813 6.08468V21.9455C23.9813 22.5465 23.7425 23.1228 23.3176 23.5477C22.8927 23.9726 22.3164 24.2113 21.7154 24.2113H5.85459C5.25365 24.2113 4.67733 23.9726 4.2524 23.5477C3.82747 23.1228 3.58875 22.5465 3.58875 21.9455V6.08468C3.58875 5.48374 3.82747 4.90742 4.2524 4.48249C4.67733 4.05757 5.25365 3.81885 5.85459 3.81885H21.7154ZM21.149 21.3791V15.3746C21.149 14.3951 20.7598 13.4557 20.0672 12.763C19.3746 12.0704 18.4352 11.6813 17.4557 11.6813C16.4927 11.6813 15.3711 12.2704 14.8273 13.1541V11.8965H11.6664V21.3791H14.8273V15.7938C14.8273 14.9214 15.5297 14.2077 16.402 14.2077C16.8227 14.2077 17.2261 14.3748 17.5236 14.6722C17.821 14.9697 17.9881 15.3731 17.9881 15.7938V21.3791H21.149ZM7.98447 10.1179C8.48926 10.1179 8.97337 9.91734 9.33031 9.5604C9.68724 9.20346 9.88777 8.71935 9.88777 8.21456C9.88777 7.16095 9.03808 6.29994 7.98447 6.29994C7.47668 6.29994 6.98968 6.50165 6.63062 6.86072C6.27156 7.21978 6.06984 7.70677 6.06984 8.21456C6.06984 9.26818 6.93086 10.1179 7.98447 10.1179ZM9.55922 21.3791V11.8965H6.42104V21.3791H9.55922Z" fill="white"/>
</svg>
