<svg width="29" height="28" viewBox="0 0 29 28" fill="none" xmlns="http://www.w3.org/2000/svg">
<path d="M26.3853 7.21749C25.513 7.61401 24.5726 7.87459 23.5983 7.99921C24.5953 7.39876 25.3657 6.44711 25.7282 5.30286C24.7879 5.86932 23.7456 6.26584 22.6467 6.49243C21.7517 5.51812 20.4941 4.95166 19.0667 4.95166C16.4043 4.95166 14.2291 7.12686 14.2291 9.81187C14.2291 10.1971 14.2744 10.5709 14.3537 10.9221C10.3205 10.7182 6.7292 8.78092 4.33874 5.84666C3.91956 6.5604 3.68165 7.39876 3.68165 8.28244C3.68165 9.97048 4.53134 11.4659 5.84552 12.3156C5.04115 12.3156 4.29343 12.089 3.63633 11.7492V11.7831C3.63633 14.1396 5.31305 16.1109 7.53357 16.5527C6.82065 16.7478 6.07221 16.775 5.34704 16.632C5.65475 17.5978 6.25738 18.4429 7.07022 19.0485C7.88307 19.654 8.86525 19.9896 9.87871 20.0081C8.16078 21.3681 6.03132 22.1032 3.84026 22.0927C3.45507 22.0927 3.06988 22.07 2.68468 22.0247C4.83723 23.4069 7.39762 24.2112 10.1393 24.2112C19.0667 24.2112 23.9722 16.802 23.9722 10.3783C23.9722 10.1631 23.9722 9.95915 23.9609 9.7439C24.9125 9.06415 25.7282 8.20313 26.3853 7.21749Z" fill="white"/>
</svg>
