<svg width="28" height="28" viewBox="0 0 28 28" fill="none" xmlns="http://www.w3.org/2000/svg">
<path d="M11.6392 17.4138L17.519 14.015L11.6392 10.6163V17.4138ZM24.7357 8.54302C24.883 9.07549 24.9849 9.78923 25.0529 10.6956C25.1322 11.6019 25.1662 12.3836 25.1662 13.0634L25.2342 14.015C25.2342 16.4961 25.0529 18.3201 24.7357 19.487C24.4525 20.5066 23.7954 21.1637 22.7757 21.4469C22.2433 21.5942 21.269 21.6962 19.7735 21.7642C18.3007 21.8435 16.9525 21.8775 15.7063 21.8775L13.905 21.9454C9.15808 21.9454 6.20117 21.7642 5.03426 21.4469C4.01464 21.1637 3.35754 20.5066 3.07432 19.487C2.92704 18.9545 2.82507 18.2408 2.7571 17.3345C2.67779 16.4281 2.64381 15.6464 2.64381 14.9667L2.57583 14.015C2.57583 11.5339 2.7571 9.70993 3.07432 8.54302C3.35754 7.5234 4.01464 6.86631 5.03426 6.58308C5.56673 6.4358 6.54104 6.33384 8.03649 6.26586C9.50928 6.18656 10.8575 6.15257 12.1037 6.15257L13.905 6.08459C18.6519 6.08459 21.6088 6.26586 22.7757 6.58308C23.7954 6.86631 24.4525 7.5234 24.7357 8.54302Z" fill="white"/>
</svg>
