<svg width="25" height="18" viewBox="0 0 25 18" fill="none" xmlns="http://www.w3.org/2000/svg">
<path d="M12.0235 12.0904L11.4957 11.8927L6.01172 9.83601V11.9882C6.01172 13.6484 8.7032 14.9941 12.0235 14.9941C15.3438 14.9941 18.0353 13.6484 18.0353 11.9882V9.83601L12.5514 11.8927L12.0235 12.0904Z" fill="url(#paint0_linear_1_317)"/>
<path d="M22.5443 6.53999L23.7093 6.10313C23.9125 6.02689 24.0472 5.83255 24.0472 5.61544V4.83439C24.0472 4.61727 23.9125 4.42293 23.7093 4.3467L12.2065 0.0331629C12.0886 -0.0110543 11.9586 -0.0110543 11.8407 0.0331629L0.337968 4.3467C0.134678 4.42293 0 4.61727 0 4.83439V5.61544C0 5.83255 0.134678 6.02689 0.337968 6.10313L12.0236 10.4852L21.0413 7.1036V8.70875V11.4453C20.594 11.7056 20.2898 12.1848 20.2898 12.7397C20.2898 13.2946 20.594 13.7737 21.0413 14.034L19.7068 16.8882C19.594 17.1295 19.6802 17.4173 19.908 17.5555C20.3643 17.8323 21.0512 18 21.7928 18C22.5344 18 23.2213 17.8323 23.6776 17.5555C23.9054 17.4173 23.9916 17.1295 23.8788 16.8882L22.5443 14.034C22.9916 13.7737 23.2958 13.2946 23.2958 12.7397C23.2958 12.1848 22.9916 11.7056 22.5443 11.4453V8.14515V6.53999Z" fill="url(#paint1_linear_1_317)"/>
<defs>
<linearGradient id="paint0_linear_1_317" x1="-2.35216" y1="-3.50628" x2="24.0881" y2="23.6511" gradientUnits="userSpaceOnUse">
<stop offset="0.184358" stop-color="#29ABE2"/>
<stop offset="0.821198" stop-color="#6200D2"/>
</linearGradient>
<linearGradient id="paint1_linear_1_317" x1="0.664209" y1="-6.44287" x2="27.1043" y2="20.7148" gradientUnits="userSpaceOnUse">
<stop offset="0.184358" stop-color="#29ABE2"/>
<stop offset="0.821198" stop-color="#6200D2"/>
</linearGradient>
</defs>
</svg>