<svg width="16" height="16" viewBox="0 0 16 16" fill="none" xmlns="http://www.w3.org/2000/svg">
<path fill-rule="evenodd" clip-rule="evenodd" d="M4.64601 1.64599C4.69245 1.59943 4.74763 1.56249 4.80837 1.53728C4.86912 1.51207 4.93424 1.4991 5.00001 1.4991C5.06578 1.4991 5.1309 1.51207 5.19164 1.53728C5.25239 1.56249 5.30756 1.59943 5.35401 1.64599L11.354 7.64599C11.4006 7.69244 11.4375 7.74761 11.4627 7.80836C11.4879 7.86911 11.5009 7.93423 11.5009 7.99999C11.5009 8.06576 11.4879 8.13088 11.4627 8.19163C11.4375 8.25237 11.4006 8.30755 11.354 8.35399L5.35401 14.354C5.26012 14.4479 5.13278 14.5006 5.00001 14.5006C4.86723 14.5006 4.7399 14.4479 4.64601 14.354C4.55212 14.2601 4.49938 14.1328 4.49938 14C4.49938 13.8672 4.55212 13.7399 4.64601 13.646L10.293 7.99999L4.64601 2.35399C4.59945 2.30755 4.5625 2.25237 4.5373 2.19163C4.51209 2.13088 4.49911 2.06576 4.49911 1.99999C4.49911 1.93423 4.51209 1.86911 4.5373 1.80836C4.5625 1.74761 4.59945 1.69244 4.64601 1.64599Z" fill="white" stroke="white" stroke-width="1.5"/>
</svg>
