<svg width="12" height="16" viewBox="0 0 12 16" fill="none" xmlns="http://www.w3.org/2000/svg">
<path fill-rule="evenodd" clip-rule="evenodd" d="M3.26671 3.53235C3.29936 3.49961 3.33816 3.47363 3.38087 3.45591C3.42358 3.43818 3.46937 3.42906 3.51561 3.42906C3.56186 3.42906 3.60764 3.43818 3.65035 3.45591C3.69307 3.47363 3.73186 3.49961 3.76452 3.53235L7.98327 7.7511C8.01601 7.78375 8.04198 7.82255 8.05971 7.86526C8.07743 7.90797 8.08655 7.95376 8.08655 8C8.08655 8.04625 8.07743 8.09203 8.05971 8.13474C8.04198 8.17746 8.01601 8.21625 7.98327 8.24891L3.76452 12.4677C3.6985 12.5337 3.60897 12.5708 3.51561 12.5708C3.42225 12.5708 3.33272 12.5337 3.26671 12.4677C3.20069 12.4016 3.16361 12.3121 3.16361 12.2188C3.16361 12.1254 3.20069 12.0359 3.26671 11.9698L7.23725 8L3.26671 4.03016C3.23397 3.9975 3.20799 3.95871 3.19027 3.916C3.17254 3.87328 3.16342 3.8275 3.16342 3.78125C3.16342 3.73501 3.17254 3.68922 3.19027 3.64651C3.20799 3.6038 3.23397 3.565 3.26671 3.53235Z" fill="#3C4852" stroke="#3C4852" stroke-width="1.05469"/>
</svg>
